<svg width="223" height="40" viewBox="0 0 223 40" fill="none" xmlns="http://www.w3.org/2000/svg">
<path d="M46.6798 28.4106L50.5814 39.7936H49.2591L48.2585 36.7918H43.9997L42.9827 39.7936H41.6768L45.5783 28.4106H46.6798ZM46.1209 30.0574L44.3405 35.6903H47.904L46.1236 30.0574H46.1209Z" fill="#231F20"/>
<path d="M54.9001 31.7532V36.6744C54.9001 37.5387 54.9846 37.9804 55.1728 38.2858C55.4454 38.692 55.9525 38.9292 56.5469 38.9292C57.2422 38.9292 57.8011 38.6239 58.1746 38.0295C58.4118 37.6232 58.5127 37.1461 58.5127 36.3173V31.7532H59.7014V37.3533C59.7014 39.101 59.7014 39.2019 59.8868 39.7962H58.7172C58.5972 39.4391 58.5645 39.1528 58.5481 38.7275C58.0737 39.6272 57.4466 40.0007 56.4106 40.0007C55.3745 40.0007 54.5102 39.5427 54.0686 38.7793C53.7959 38.3212 53.7114 37.8114 53.7114 36.6744V31.7532H54.9001Z" fill="#231F20"/>
<path d="M68.0172 33.9589C67.8972 32.9746 67.3737 32.5166 66.3704 32.5166C65.4543 32.5166 64.8272 33.0073 64.8272 33.7217C64.8272 34.3842 65.168 34.6214 66.6921 35.0795C67.9818 35.453 68.4916 35.6902 68.8133 36.0637C69.135 36.4209 69.3041 36.8953 69.3041 37.4897C69.3041 39.0328 68.1835 40.0007 66.3868 40.0007C64.4346 40.0007 63.3495 39.0328 63.3495 37.3043H64.5028C64.6037 38.4412 65.2144 39.0001 66.3677 39.0001C67.4201 39.0001 68.0799 38.4412 68.0799 37.5933C68.0799 37.1679 67.9272 36.8626 67.5701 36.6417C67.2811 36.4727 67.1802 36.4372 65.7706 35.9983C64.211 35.5239 63.6167 34.9295 63.6167 33.8089C63.6167 32.4511 64.7373 31.535 66.3813 31.535C68.0254 31.535 69.0778 32.3993 69.165 33.9616H68.0117L68.0172 33.9589Z" fill="#231F20"/>
<path d="M76.6029 31.7532L76.5865 32.7211H74.6698L74.6016 36.7917V37.4188C74.6016 38.1822 74.618 38.3185 74.7216 38.5557C74.8225 38.7766 75.1278 38.9292 75.5014 38.9292C75.8749 38.9292 76.2648 38.8284 76.6547 38.6402L76.6383 39.6927C76.1284 39.8781 75.7222 39.9653 75.2287 39.9653C74.4326 39.9653 73.8546 39.7117 73.5819 39.2346C73.4129 38.962 73.3611 38.6566 73.3611 38.065C73.3611 37.8441 73.3611 37.7923 73.3938 36.759L73.4947 32.7211H72.2732L72.2896 31.7532H73.511L73.5628 29.4302H74.7325L74.6807 31.7532H76.6029Z" fill="#231F20"/>
<path d="M81.0851 31.7532C81.186 32.1594 81.2378 32.5847 81.2378 32.991C81.2378 33.0919 81.2214 33.2636 81.2051 33.4818C81.7831 32.1403 82.4265 31.5296 83.2908 31.5296C83.5962 31.5296 83.9179 31.6141 84.2587 31.7832V32.9719C83.6998 32.7183 83.4953 32.6502 83.1736 32.6502C82.5629 32.6502 81.9849 33.1082 81.6304 33.888C81.3932 34.4469 81.2896 35.1258 81.2896 36.1946V39.7908H80.0845V34.5151C80.0682 32.6665 80.0682 32.5302 79.9482 31.7504H81.0851V31.7532Z" fill="#231F20"/>
<path d="M87.3206 33.8553C87.4896 32.3448 88.542 31.5323 90.3224 31.5323C91.6284 31.5323 92.5963 32.0231 92.9016 32.8547C93.0543 33.2609 93.0871 33.6508 93.0871 34.6541V37.675C93.0707 38.8447 93.1198 39.2864 93.3079 39.7962H92.171C92.051 39.4227 92.0346 39.2373 91.9856 38.7111C91.5112 39.5754 90.7314 40.0007 89.6272 40.0007C88.0485 40.0007 87.0316 39.0846 87.0316 37.675C87.0316 36.5545 87.675 35.7229 88.8965 35.2649C89.6762 34.9758 90.4233 34.8068 91.9174 34.5532V34.2152C91.9174 33.0101 91.4594 32.552 90.2706 32.552C89.2373 32.552 88.6593 32.9583 88.4902 33.858H87.3206V33.8553ZM91.9174 35.4339C89.2018 35.9083 88.253 36.4863 88.253 37.5878C88.253 38.4194 88.8801 38.9947 89.8126 38.9947C90.576 38.9947 91.2385 38.6375 91.5929 38.0458C91.8138 37.656 91.9147 37.097 91.9147 36.23V35.4339H91.9174Z" fill="#231F20"/>
<path d="M98.4773 28.4269V39.7935H97.2204V28.4269H98.4773Z" fill="#231F20"/>
<path d="M104.11 29.2067C104.11 29.6974 103.753 30.0546 103.246 30.0546C102.739 30.0546 102.382 29.6974 102.382 29.2067C102.382 28.7159 102.755 28.3233 103.265 28.3233C103.775 28.3233 104.113 28.6968 104.113 29.2067H104.11ZM103.873 31.7505V39.7935H102.616V31.7505H103.873Z" fill="#231F20"/>
<path d="M107.843 33.8553C108.012 32.3448 109.064 31.5323 110.845 31.5323C112.151 31.5323 113.118 32.0231 113.424 32.8547C113.576 33.2609 113.609 33.6508 113.609 34.6541V37.675C113.593 38.8447 113.642 39.2864 113.83 39.7962H112.693C112.573 39.4227 112.557 39.2373 112.508 38.7111C112.033 39.5754 111.254 40.0007 110.149 40.0007C108.571 40.0007 107.554 39.0846 107.554 37.675C107.554 36.5545 108.197 35.7229 109.419 35.2649C110.198 34.9758 110.945 34.8068 112.44 34.5532V34.2152C112.44 33.0101 111.981 32.552 110.793 32.552C109.759 32.552 109.181 32.9583 109.012 33.858H107.843V33.8553ZM112.44 35.4339C109.724 35.9083 108.775 36.4863 108.775 37.5878C108.775 38.4194 109.402 38.9947 110.335 38.9947C111.098 38.9947 111.761 38.6375 112.115 38.0458C112.336 37.656 112.437 37.097 112.437 36.23V35.4339H112.44Z" fill="#231F20"/>
<path d="M126.489 28.4787C128.168 28.4787 128.916 28.5468 129.611 28.784C130.849 29.1903 131.612 30.379 131.612 31.8704C131.612 33.2609 130.949 34.3651 129.848 34.8068C129.136 35.0958 128.441 35.1803 126.726 35.1803H125.895V39.7935H124.621V28.4787H126.489ZM126.693 34.0761C127.863 34.0761 128.272 34.0434 128.798 33.9234C129.747 33.7026 130.273 32.9555 130.273 31.8704C130.273 30.8862 129.848 30.1391 129.12 29.8528C128.561 29.632 128.103 29.5802 126.557 29.5802H125.895V34.0761H126.693Z" fill="#231F20"/>
<path d="M134.824 33.8553C134.993 32.3448 136.045 31.5323 137.826 31.5323C139.132 31.5323 140.1 32.0231 140.405 32.8547C140.558 33.2609 140.59 33.6508 140.59 34.6541V37.675C140.574 38.8447 140.623 39.2864 140.811 39.7962H139.674C139.554 39.4227 139.538 39.2373 139.489 38.7111C139.014 39.5754 138.235 40.0007 137.13 40.0007C135.552 40.0007 134.535 39.0846 134.535 37.675C134.535 36.5545 135.178 35.7229 136.4 35.2649C137.179 34.9758 137.927 34.8068 139.421 34.5532V34.2152C139.421 33.0101 138.963 32.552 137.774 32.552C136.741 32.552 136.163 32.9583 135.993 33.858H134.824V33.8553ZM139.421 35.4339C136.705 35.9083 135.756 36.4863 135.756 37.5878C135.756 38.4194 136.383 38.9947 137.316 38.9947C138.079 38.9947 138.742 38.6375 139.096 38.0458C139.317 37.656 139.418 37.097 139.418 36.23V35.4339H139.421Z" fill="#231F20"/>
<path d="M149.38 34.3651C149.16 33.0592 148.669 32.5493 147.633 32.5493C146.291 32.5493 145.479 33.7708 145.479 35.772C145.479 37.7732 146.294 38.9783 147.668 38.9783C148.737 38.9783 149.296 38.3676 149.432 37.0262H150.621C150.468 38.9429 149.432 39.9953 147.668 39.9953C145.599 39.9953 144.257 38.3321 144.257 35.7883C144.257 33.2446 145.58 31.5296 147.668 31.5296C149.364 31.5296 150.384 32.5302 150.553 34.3624H149.383L149.38 34.3651Z" fill="#231F20"/>
<path d="M155.79 29.2067C155.79 29.6974 155.433 30.0546 154.926 30.0546C154.419 30.0546 154.062 29.6974 154.062 29.2067C154.062 28.7159 154.435 28.3233 154.945 28.3233C155.455 28.3233 155.793 28.6968 155.793 29.2067H155.79ZM155.553 31.7505V39.7935H154.296V31.7505H155.553Z" fill="#231F20"/>
<path d="M163.179 31.7532V32.7211H161.227V39.7963H159.973V32.7211H158.836V31.7532H159.973V31.2433C159.973 30.0382 160.041 29.6156 160.311 29.1739C160.668 28.5796 161.328 28.2415 162.11 28.2415C162.517 28.2415 162.906 28.326 163.384 28.495V29.5965C162.958 29.3757 162.62 29.2912 162.263 29.2912C161.789 29.2912 161.448 29.5284 161.295 29.9537C161.211 30.1909 161.175 30.5644 161.175 31.2079V31.7504H163.176L163.179 31.7532Z" fill="#231F20"/>
<path d="M168.166 29.2067C168.166 29.6974 167.809 30.0546 167.302 30.0546C166.794 30.0546 166.437 29.6974 166.437 29.2067C166.437 28.7159 166.811 28.3233 167.321 28.3233C167.83 28.3233 168.169 28.6968 168.169 29.2067H168.166ZM167.929 31.7505V39.7935H166.672V31.7505H167.929Z" fill="#231F20"/>
<path d="M176.762 34.3651C176.542 33.0592 176.051 32.5493 175.015 32.5493C173.673 32.5493 172.861 33.7708 172.861 35.772C172.861 37.7732 173.676 38.9783 175.05 38.9783C176.119 38.9783 176.678 38.3676 176.814 37.0262H178.003C177.85 38.9429 176.814 39.9953 175.05 39.9953C172.981 39.9953 171.639 38.3321 171.639 35.7883C171.639 33.2446 172.962 31.5296 175.05 31.5296C176.746 31.5296 177.766 32.5302 177.935 34.3624H176.765L176.762 34.3651Z" fill="#231F20"/>
<path d="M138.635 0.325185V2.46001H142.897V16.5722H145.364V2.46001H149.629V0.325185H138.635Z" fill="#231F20"/>
<path d="M173.785 0.278825V9.7942C173.785 12.2071 173.875 12.9051 174.298 13.8321C175.159 15.7597 177.237 16.8721 179.865 16.8721C182.493 16.8721 184.59 15.757 185.433 13.8321C185.874 12.9269 185.945 12.2071 185.945 9.7942V0.278825H183.478V9.74785C183.478 11.4655 183.429 12.0463 183.197 12.6488C182.755 13.9248 181.542 14.6691 179.865 14.6691C178.349 14.6691 177.136 14.042 176.675 12.9514C176.345 12.2562 176.274 11.6973 176.274 9.74785V0.278825H173.785Z" fill="#231F20"/>
<path d="M204.199 5.08287C203.858 1.83292 201.851 0.000732422 198.68 0.000732422C197.006 0.000732422 195.441 0.603282 194.236 1.69387C192.6 3.20433 191.769 5.52456 191.769 8.47187C191.769 13.5785 194.487 16.8748 198.77 16.8748C202.17 16.8748 204.158 14.7864 204.439 10.9093L202.17 10.7703C201.919 13.3468 200.725 14.6691 198.7 14.6691C196.022 14.6691 194.375 12.3026 194.375 8.45006C194.375 4.59756 196.019 2.20645 198.659 2.20645C200.474 2.20645 201.617 3.20433 202.009 5.22192H202.17L204.196 5.08287H204.199Z" fill="#231F20"/>
<path d="M218.695 0.325185L213.428 6.82509H212.476V0.325185H209.957V16.5722H212.476V9.00626H213.27L218.875 16.5722H222.136L215.334 7.91567L221.624 0.325185H218.695Z" fill="#231F20"/>
<path d="M159.79 2.46C161.947 2.46 162.467 2.5527 163.141 2.90169C163.934 3.27249 164.395 4.10679 164.395 5.1074C164.395 6.3125 163.814 7.19588 162.811 7.56668C162.159 7.82297 161.628 7.84478 159.902 7.84478H158.789V2.46H159.793H159.79ZM158.787 16.5722V10.026H161.273L164.935 16.5722H167.893L163.902 9.63334C165.957 8.79904 166.982 7.24223 166.982 5.13194C166.982 3.27522 166.069 1.69659 164.534 0.976804C163.441 0.466955 162.418 0.327905 159.738 0.327905C158.596 0.327905 157.312 0.281555 156.267 0.535117V16.5722H158.787Z" fill="#231F20"/>
<path d="M41.0878 0.325185H38.5713V16.5722H41.0878V0.325185Z" fill="#231F20"/>
<path d="M75.1878 0.325185V16.5722H84.5505L84.7386 14.391H77.7725V0.325185H75.1878Z" fill="#231F20"/>
<path d="M94.1013 7.05684V2.46001H101.157L101.016 0.325185H91.5848V16.5722H101.228L101.367 14.391H94.1013V9.23801H98.5045V7.05684H94.1013Z" fill="#231F20"/>
<path d="M26.8557 10.6067H22.2916L24.5737 3.2725L26.8557 10.6067ZM23.3849 0.325185L17.8638 16.5722H20.4267L21.6373 12.7415H27.5073L28.7179 16.5722H31.3026L25.8088 0.325185H23.3849Z" fill="#231F20"/>
<path d="M50.6605 0.325185L49.7281 16.5722H52.0347L52.8035 3.736L57.5776 16.5722H58.859L63.6822 3.736L64.4728 16.5722H66.7576L65.8252 0.325185H62.5643L58.2538 11.8145L53.9459 0.325185H50.6605Z" fill="#231F20"/>
<path d="M111.971 2.46C114.138 2.46 114.67 2.5527 115.341 2.90169C116.134 3.27249 116.606 4.10679 116.606 5.1074C116.606 6.3125 116.025 7.19588 115.041 7.56668C114.389 7.82297 113.827 7.84478 112.101 7.84478H110.989V2.46H111.973H111.971ZM108.47 16.5722H110.986V10.026H113.454L117.135 16.5722H120.074L116.112 9.63334C118.138 8.79904 119.182 7.24223 119.182 5.13194C119.182 3.27522 118.28 1.69659 116.745 0.976804C115.67 0.466955 114.648 0.327905 111.971 0.327905C110.828 0.327905 109.544 0.281555 108.47 0.535117V16.5722Z" fill="#231F20"/>
<path d="M2.51653 14.391V2.41366H3.19269C5.84827 2.41366 6.52444 2.5309 7.50051 3.13345C8.96735 4.03864 9.73622 5.98806 9.73622 8.40371C9.73622 10.8194 8.99189 12.7197 7.6641 13.6249C6.75619 14.2056 5.91643 14.391 3.81978 14.391H2.51653ZM0 0.535124V16.5722H2.93368C6.28723 16.5722 7.40509 16.3868 8.77923 15.6207C11.0149 14.3665 12.3209 11.6291 12.3209 8.42552C12.3209 5.22192 10.9468 2.34277 8.61836 1.11586C7.40781 0.464235 6.00913 0.325185 3.28539 0.325185C2.3284 0.325185 0.861564 0.325185 0 0.535124Z" fill="#231F20"/>
</svg>
